<svg width="640" height="640" viewBox="0 0 640 640" fill="none" xmlns="http://www.w3.org/2000/svg">
<path d="M320.26 325.067C346.034 325.067 366.927 304.173 366.927 278.4C366.927 252.627 346.034 231.733 320.26 231.733C294.487 231.733 273.594 252.627 273.594 278.4C273.594 304.173 294.487 325.067 320.26 325.067Z" fill="url(#paint0_linear_402_51)"/>
<path d="M349.059 357.334H291.193C277.593 357.334 264.793 362.934 255.993 373.334C247.193 383.467 243.193 397.068 245.059 410.401L257.326 498.134C260.526 521.067 280.526 538.401 303.459 538.401H336.793C359.726 538.401 379.725 521.067 382.925 498.134L395.193 410.401C397.059 397.068 393.059 383.467 384.259 373.334C375.459 362.934 362.659 357.334 349.059 357.334Z" fill="url(#paint1_linear_402_51)"/>
<path d="M320.26 151.733C250.394 151.733 193.594 208.533 193.594 278.4C193.594 300.533 199.461 322.667 210.394 341.867C215.994 351.2 228.261 354.667 237.861 349.067C247.461 343.467 250.66 331.2 245.06 321.6C237.594 308.533 233.594 293.6 233.594 278.4C233.594 230.667 272.26 191.733 320.26 191.733C367.994 191.733 406.927 230.667 406.927 278.4C406.927 293.6 402.66 308.533 395.194 321.6C389.594 331.2 392.793 343.467 402.393 349.067C405.593 350.933 409.06 351.733 412.527 351.733C419.46 351.733 426.127 348.267 429.86 341.867C440.793 322.4 446.927 300.533 446.927 278.4C446.927 208.533 389.86 151.733 320.26 151.733Z" fill="url(#paint2_linear_402_51)"/>
<path d="M320.26 71.7334C206.127 71.7334 113.594 164.533 113.594 278.4C113.594 334.4 135.46 386.934 175.46 426.134C183.193 433.867 195.994 433.6 203.727 425.6C211.461 417.866 211.194 405.066 203.46 397.333C171.194 365.866 153.594 323.733 153.594 278.4C153.594 186.4 228.26 111.733 320.26 111.733C411.994 111.733 486.927 186.4 486.927 278.4C486.927 323.467 469.06 365.866 436.794 397.333C429.06 405.066 428.793 417.866 436.527 425.6C440.527 429.6 445.594 431.733 450.927 431.733C455.994 431.733 460.793 429.867 464.793 426.134C504.793 386.934 526.927 334.4 526.927 278.4C526.927 164.533 434.127 71.7334 320.26 71.7334Z" fill="url(#paint3_linear_402_51)"/>
<defs>
<linearGradient id="paint0_linear_402_51" x1="21.0081" y1="168.387" x2="381.018" y2="315.405" gradientUnits="userSpaceOnUse">
<stop offset="0.390625" stop-color="#C0FF81"/>
<stop offset="0.536458" stop-color="#64FFE3"/>
<stop offset="0.729167" stop-color="#4F80FF"/>
<stop offset="1" stop-color="#9C4FFF"/>
</linearGradient>
<linearGradient id="paint1_linear_402_51" x1="-164.128" y1="234.441" x2="444.928" y2="441.908" gradientUnits="userSpaceOnUse">
<stop offset="0.390625" stop-color="#C0FF81"/>
<stop offset="0.536458" stop-color="#64FFE3"/>
<stop offset="0.729167" stop-color="#4F80FF"/>
<stop offset="1" stop-color="#9C4FFF"/>
</linearGradient>
<linearGradient id="paint2_linear_402_51" x1="-491.996" y1="15.9699" x2="407.522" y2="481.196" gradientUnits="userSpaceOnUse">
<stop offset="0.390625" stop-color="#C0FF81"/>
<stop offset="0.536458" stop-color="#64FFE3"/>
<stop offset="0.729167" stop-color="#4F80FF"/>
<stop offset="1" stop-color="#9C4FFF"/>
</linearGradient>
<linearGradient id="paint3_linear_402_51" x1="-1005" y1="-172.629" x2="520.019" y2="542.337" gradientUnits="userSpaceOnUse">
<stop offset="0.390625" stop-color="#C0FF81"/>
<stop offset="0.536458" stop-color="#64FFE3"/>
<stop offset="0.729167" stop-color="#4F80FF"/>
<stop offset="1" stop-color="#9C4FFF"/>
</linearGradient>
</defs>
</svg>
