<svg width="640" height="640" viewBox="0 0 640 640" fill="none" xmlns="http://www.w3.org/2000/svg">
<path fill-rule="evenodd" clip-rule="evenodd" d="M640 327.274C640 304.583 637.922 282.765 634.063 261.82H326.53V385.601H502.263C494.694 425.601 471.688 459.492 437.106 482.183V562.474H542.634C604.378 506.765 640 424.729 640 327.274Z" fill="#4285F4"/>
<path fill-rule="evenodd" clip-rule="evenodd" d="M326.531 639.999C414.694 639.999 488.608 611.347 542.634 562.474L437.106 482.183C407.866 501.383 370.464 512.726 326.531 512.726C241.485 512.726 169.499 456.435 143.822 380.799H34.7311V463.708C88.4603 568.29 198.887 639.999 326.531 639.999Z" fill="#34A853"/>
<path fill-rule="evenodd" clip-rule="evenodd" d="M143.822 380.799C137.292 361.599 133.581 341.092 133.581 320.001C133.581 298.91 137.291 278.401 143.822 259.201V176.292H34.731C12.616 219.492 0 268.365 0 320.001C0 371.638 12.6161 420.508 34.7311 463.708L143.822 380.799Z" fill="#FBBC05"/>
<path fill-rule="evenodd" clip-rule="evenodd" d="M326.531 127.273C374.472 127.273 417.514 143.418 451.355 175.127L545.01 83.3453C488.461 31.709 414.546 0 326.531 0C198.887 0 88.4602 71.7106 34.731 176.292L143.822 259.201C169.499 183.565 241.485 127.273 326.531 127.273Z" fill="#EA4335"/>
</svg>
